<?xml version="1.0" encoding="UTF-8" standalone="no"?>
<svg xmlns:dc="http://purl.org/dc/elements/1.1/" xmlns:cc="http://creativecommons.org/ns#" xmlns:rdf="http://www.w3.org/1999/02/22-rdf-syntax-ns#" xmlns:svg="http://www.w3.org/2000/svg" xmlns="http://www.w3.org/2000/svg" xmlns:sodipodi="http://sodipodi.sourceforge.net/DTD/sodipodi-0.dtd" xmlns:inkscape="http://www.inkscape.org/namespaces/inkscape" version="1.1" width="181.2419" height="108.522" id="svg66" viewBox="0 0 181.2419 108.522" sodipodi:docname="mastercard_maestro.svg" inkscape:version="0.92.3 (2405546, 2018-03-11)">
  <metadata id="metadata72">
    <rdf:RDF>
      <cc:Work rdf:about="">
        <dc:format>image/svg+xml</dc:format>
        <dc:type rdf:resource="http://purl.org/dc/dcmitype/StillImage"/>
        <dc:title/>
      </cc:Work>
    </rdf:RDF>
  </metadata>
  <defs id="defs70"/>
  <sodipodi:namedview pagecolor="#ffffff" bordercolor="#666666" borderopacity="1" objecttolerance="10" gridtolerance="10" guidetolerance="10" inkscape:pageopacity="0" inkscape:pageshadow="2" inkscape:window-width="1366" inkscape:window-height="705" id="namedview68" showgrid="false" fit-margin-top="0" fit-margin-left="0" fit-margin-right="0" fit-margin-bottom="0" inkscape:zoom="1.2964581" inkscape:cx="149.38317" inkscape:cy="4.1072377" inkscape:window-x="-8" inkscape:window-y="-8" inkscape:window-maximized="1" inkscape:current-layer="svg66"/>
  <g id="Layer1000" transform="translate(-22.7648,-30.6721)">
    <path d="m 113.359,125.1498 c 9.5756,8.7243 22.4489,14.0443 36.3867,14.0443 30.0032,0 54.261,-24.2578 54.261,-54.261 0,-29.8972 -24.2578,-54.261 -54.261,-54.261 -13.9378,0 -26.8114,5.3197 -36.3867,14.044 -10.9588,10.001 -17.8743,24.2579 -17.8743,40.217 0,15.9592 6.9155,30.3223 17.8743,40.2167 z" style="fill:#f7a100;fill-rule:evenodd" id="path4" inkscape:connector-curvature="0"/>
    <path d="m 40.6391,125.1498 c 9.5756,8.7243 22.4489,14.0443 36.3867,14.0443 30.0031,0 54.2609,-24.2578 54.2609,-54.261 0,-29.8972 -24.2578,-54.261 -54.2609,-54.261 -13.9378,0 -26.8115,5.3197 -36.3867,14.044 -10.9589,10.001 -17.8743,24.2579 -17.8743,40.217 0,15.9592 6.9154,30.3223 17.8743,40.2167 z" style="fill:#d40018;fill-rule:evenodd" id="path6" inkscape:connector-curvature="0"/>
    <path d="m 196.9584,115.1488 c 0,-0.9572 0.7447,-1.702 1.8088,-1.702 0.9576,0 1.7023,0.7448 1.7023,1.7023 3e-4,0.9576 -0.7447,1.8086 -1.7023,1.8086 -1.0638,0 -1.8088,-0.851 -1.8088,-1.8089 z m 1.8091,1.3832 c 0.6382,0 1.2764,-0.6381 1.2764,-1.3829 0,-0.745 -0.6385,-1.2766 -1.2767,-1.2766 -0.7447,0 -1.3832,0.5319 -1.3832,1.2766 3e-4,0.7448 0.6385,1.3832 1.3835,1.3829 z m -0.3194,-0.5322 h -0.3194 v -1.5957 h 0.6388 c 0.106,0 0.3188,3e-4 0.4254,0.1065 0.1066,0.1063 0.2125,0.2129 0.2125,0.3194 3e-4,0.2129 -0.1063,0.4254 -0.3191,0.4254 l 0.3194,0.7444 h -0.4256 l -0.2126,-0.6378 h -0.3194 z m 0,-0.9569 h 0.2126 c 0.1068,0 0.2128,0 0.2128,0 0.1066,0 0.1066,-0.1066 0.1066,-0.2129 0,0 0,-0.1065 -0.1066,-0.1065 0,0 -0.1063,0 -0.2128,0 h -0.2126 z" style="fill:#f7a100;fill-rule:evenodd" id="path8" inkscape:connector-curvature="0"/>
    <path d="m 176.0785,71.3477 c 0,-0.719 0.559,-1.2778 1.3578,-1.2778 0.7188,0 1.2778,0.559 1.2778,1.2778 2e-4,0.7185 -0.559,1.3575 -1.2778,1.3575 -0.7986,-2e-4 -1.3578,-0.6387 -1.3578,-1.3575 z m 1.358,1.0383 c 0.4791,0 0.9581,-0.4793 0.9581,-1.0383 0,-0.5593 -0.4793,-0.9583 -0.9583,-0.9583 -0.559,-3e-4 -1.0383,0.3993 -1.0383,0.9583 2e-4,0.5588 0.4793,1.0383 1.0385,1.0383 z m -0.2397,-0.3995 h -0.2398 v -1.1981 h 0.4795 c 0.0795,0 0.2393,3e-4 0.3193,0.08 0.08,0.08 0.1595,0.1598 0.1595,0.2398 3e-4,0.1595 -0.0797,0.3192 -0.2395,0.3192 l 0.2398,0.5591 h -0.3196 l -0.1595,-0.4793 h -0.2397 z m 0,-0.7188 h 0.1595 c 0.0802,0 0.1597,2e-4 0.1597,2e-4 0.08,-2e-4 0.08,-0.08 0.08,-0.1597 0,0 0,-0.08 -0.08,-0.08 0,-3e-4 -0.0797,0 -0.1597,0 l -0.1595,-3e-4 z" style="fill:#ffffff;fill-rule:evenodd" id="path10" inkscape:connector-curvature="0"/>
    <path d="m 99.649,73.6638 c -1.3578,0.3993 -2.3161,0.559 -3.3544,0.559 -2.0763,-2e-4 -3.3541,-1.2778 -3.3541,-3.6737 0,-0.4792 0.0797,-0.9585 0.1597,-1.5175 l 0.2395,-1.5974 0.2396,-1.3578 1.9168,-11.5003 h 4.2327 l -0.4793,2.5559 h 2.6356 l -0.639,4.2327 h -2.6354 l -1.198,6.8683 c 0,0.2395 -0.0798,0.4791 -0.0798,0.6388 0,0.8786 0.4791,1.2778 1.5174,1.2778 0.559,0 0.8785,-0.0797 1.3578,-0.1597 z" style="fill:#022351;fill-rule:evenodd" id="path12" inkscape:connector-curvature="0"/>
    <path d="m 113.3059,73.504 c -1.5178,0.4788 -3.0351,0.7188 -4.5524,0.7188 -4.712,-2e-4 -7.5074,-2.5556 -7.5074,-7.5073 0,-5.7501 3.2744,-10.0628 7.7469,-10.0628 3.5939,-2e-4 5.91,2.3959 5.91,6.1496 0,1.1975 -0.1597,2.3958 -0.5592,4.1529 h -8.785 c 0,0.2395 0,0.3195 0,0.479 0,1.9964 1.2778,2.9552 3.8335,2.9552 1.5973,-3e-4 3.0349,-0.3195 4.6322,-1.0383 z m -2.6358,-9.9832 c 0,-0.3193 0,-0.6388 0,-0.7985 0,-1.3576 -0.7986,-2.1561 -2.0764,-2.1561 -1.4375,0 -2.3958,1.038 -2.7954,2.9548 z" style="fill:#022351;fill-rule:evenodd" id="path14" inkscape:connector-curvature="0"/>
    <path d="M 65.8667,73.9033 H 61.474 L 64.0296,58.0105 58.3593,73.9033 H 55.3247 L 55.0051,58.09 52.2898,73.9033 H 48.0571 L 51.491,53.2185 h 6.3093 L 58.04,65.9967 62.2727,53.2185 h 7.0281 z" style="fill:#022351;fill-rule:evenodd" id="path16" inkscape:connector-curvature="0"/>
    <path d="m 76.4884,66.3962 c -0.479,0 -0.559,-0.08 -0.8785,-0.08 -2.4756,0 -3.7535,0.9585 -3.7535,2.5556 0,1.1178 0.6388,1.7571 1.5971,1.7571 2.1564,-2e-4 2.9552,-1.7571 3.0349,-4.2327 z m 3.514,7.5071 h -3.8335 l 0.08,-1.7573 c -0.9585,1.358 -2.2363,2.0768 -4.6322,2.0768 -2.1564,-2e-4 -3.9132,-1.9168 -3.9132,-4.6322 0,-0.7988 0.1598,-1.5173 0.3193,-2.1564 0.7188,-2.6356 3.3544,-4.2327 7.3476,-4.3124 0.4792,-3e-4 1.2778,0 1.9166,0.0797 0.1597,-0.5592 0.1597,-0.7985 0.1597,-1.118 0,-1.1181 -0.8783,-1.4376 -2.9549,-1.4376 -1.2778,-2e-4 -2.6354,0.2395 -3.6736,0.4793 l -0.5591,0.2395 h -0.3195 l 0.639,-3.7537 c 2.0764,-0.6388 3.514,-0.8785 5.1113,-0.8785 3.8334,0 5.83,1.6773 5.83,4.9517 0,0.7983 0.0798,1.4376 -0.2397,3.2744 l -0.8783,5.9898 -0.1598,1.0381 -0.1598,0.8785 v 0.559 z" style="fill:#022351;fill-rule:evenodd" id="path18" inkscape:connector-curvature="0"/>
    <path d="m 134.5495,57.2915 c 1.1978,0 2.3158,0.3195 3.9132,1.1183 l 0.7187,-4.5522 c -0.399,-0.16 -0.479,-0.1598 -1.038,-0.3995 l -1.8368,-0.3995 c -0.5593,-0.1598 -1.1981,-0.2393 -1.9969,-0.2393 -2.1559,0 -3.4339,0 -4.7917,0.8785 -0.7186,0.399 -1.5973,1.0381 -2.6354,2.1564 l -0.4793,-0.1598 -4.5519,3.1944 0.2395,-1.7568 h -4.7123 l -2.6353,16.7713 h 4.3927 l 1.5971,-9.0247 c 0,0 0.6387,-1.2778 0.9583,-1.6771 0.7987,-1.0383 1.5173,-1.0383 2.3958,-1.0383 0.16,0 0.3195,0 0.3195,0 -0.08,0.9583 -0.1597,2.0766 -0.1597,3.1947 2e-4,5.5103 3.1146,8.9447 7.9066,8.9447 1.1981,0 2.2361,-0.1598 3.8334,-0.6388 l 0.7986,-4.7122 c -1.4376,0.719 -2.6354,1.0383 -3.7537,1.0383 -2.5554,-3e-4 -4.0729,-1.8369 -4.0729,-5.0313 2e-4,-4.4724 2.2361,-7.6669 5.5905,-7.6671 z" style="fill:#022351;fill-rule:evenodd" id="path20" inkscape:connector-curvature="0"/>
    <path d="m 171.846,53.2185 -0.9585,5.9098 c -1.0383,-1.5973 -2.3161,-2.3158 -3.9932,-2.3158 -2.3161,-3e-4 -4.4725,1.2778 -5.8301,3.7537 v 0 l -2.7951,-1.6774 0.2398,-1.7568 h -4.7123 l -2.7153,16.7713 h 4.4724 l 1.4376,-9.0247 c 0,0 1.1178,-1.2778 1.4373,-1.6771 0.6393,-0.7985 1.3578,-1.0383 1.9169,-1.0383 -0.4791,1.4376 -0.7988,3.1149 -0.7988,4.9518 0,4.2327 2.2363,7.0278 5.4307,7.0278 1.5976,0 2.8752,-0.559 4.0732,-1.9166 l -0.2397,1.6771 h 4.2332 l 3.3541,-20.6848 z m -5.351,16.6916 c -1.5176,0 -2.2363,-1.0383 -2.2363,-3.2744 2e-4,-3.2746 1.3578,-5.6703 3.4341,-5.6703 1.5176,0 2.3161,1.1978 2.3161,3.3542 0,3.2744 -1.4375,5.5905 -3.5139,5.5905 z" style="fill:#022351;fill-rule:evenodd" id="path22" inkscape:connector-curvature="0"/>
    <path d="m 146.1298,66.3962 c -0.4793,0 -0.5593,-0.08 -0.8786,-0.08 -2.4756,0 -3.7536,0.9585 -3.7536,2.5556 2e-4,1.1178 0.639,1.7571 1.5973,1.7571 2.1566,-2e-4 2.9549,-1.7571 3.0349,-4.2327 z m 3.5141,7.5071 h -3.8336 l 0.08,-1.7573 c -0.9586,1.358 -2.2364,2.0768 -4.6323,2.0768 -2.1563,-2e-4 -4.0731,-1.8368 -4.0731,-4.6322 0.08,-3.9934 3.0348,-6.4688 7.8266,-6.4688 0.4795,-3e-4 1.2778,0 1.9168,0.0797 0.1598,-0.5592 0.1598,-0.7985 0.1598,-1.118 0,-1.1181 -0.8786,-1.4376 -2.9552,-1.4376 -1.2778,-2e-4 -2.7151,0.2395 -3.6736,0.4793 l -0.6386,0.2395 h -0.24 l 0.639,-3.7537 c 2.0764,-0.6388 3.514,-0.8785 5.1113,-0.8785 3.8334,0 5.83,1.6773 5.83,4.9517 3e-4,0.7983 0.08,1.4376 -0.2395,3.2744 l -0.8785,5.9898 -0.1595,1.0381 -0.16,0.8785 -0.0796,0.559 z" style="fill:#022351;fill-rule:evenodd" id="path24" inkscape:connector-curvature="0"/>
    <path d="m 89.1868,60.7257 c 0.8785,0 2.0763,0.08 3.3542,0.2397 l 0.639,-3.9137 c -1.2778,-0.1597 -2.9549,-0.3192 -3.9932,-0.3192 -4.8717,0 -6.5488,2.6356 -6.5488,5.7502 0,1.9966 0.9583,3.514 3.2744,4.5523 1.8368,0.8783 2.1563,1.0383 2.1563,1.7571 0,1.038 -0.9583,1.677 -2.7153,1.677 -1.2779,-2e-4 -2.4759,-0.2395 -3.9135,-0.6387 l -0.479,3.8334 h 0.0797 l 0.7988,0.1597 c 0.2395,0.0798 0.6388,0.1596 1.1181,0.1596 1.118,0.1597 1.9966,0.1597 2.5556,0.1597 4.8717,0 6.9481,-1.8368 6.9481,-5.5903 0,-2.3163 -1.1181,-3.6739 -3.3542,-4.6322 -1.837,-0.8785 -2.0766,-0.9583 -2.0766,-1.7571 0,-0.7985 0.7988,-1.4375 2.1564,-1.4375 z" style="fill:#022351;fill-rule:evenodd" id="path26" inkscape:connector-curvature="0"/>
    <path d="m 140.3795,52.5798 -0.7185,4.4719 c -1.5976,-0.7985 -2.7157,-1.1178 -3.9137,-1.1178 -3.3539,0 -5.6703,3.1947 -5.6703,7.7469 2e-4,3.1147 1.5973,5.0313 4.153,5.0313 1.118,0 2.3161,-0.3193 3.7536,-1.0381 l -0.7985,4.712 c -1.5976,0.3992 -2.6356,0.559 -3.9134,0.559 -4.7118,-2e-4 -7.6672,-3.3544 -7.6672,-8.8649 0,-7.4276 4.0732,-12.5386 9.9033,-12.5386 0.7988,0 1.4375,0.0797 1.9966,0.1597 l 1.8368,0.4791 c 0.5593,0.2397 0.639,0.2397 1.0383,0.3995 z" style="fill:#ffffff;fill-rule:evenodd" id="path28" inkscape:connector-curvature="0"/>
    <path d="m 126.2438,55.6944 c -0.1597,-0.0802 -0.3197,-0.08 -0.4795,-0.08 -1.4376,-2e-4 -2.2361,0.7188 -3.5937,2.7154 l 0.3993,-2.5559 h -4.0732 l -2.6351,16.8516 h 4.3924 c 1.5974,-10.3027 1.9964,-12.0593 4.1527,-12.0593 0.0798,0 0.0798,0 0.3195,0 0.3993,-1.9969 0.8783,-3.5142 1.6771,-4.8718 z" style="fill:#ffffff;fill-rule:evenodd" id="path30" inkscape:connector-curvature="0"/>
    <path d="m 100.7671,72.386 c -1.1981,0.3992 -2.1564,0.559 -3.1947,0.559 -2.2361,-2e-4 -3.5139,-1.2778 -3.5139,-3.6737 0,-0.4795 0.0798,-0.9585 0.1598,-1.5175 l 0.2395,-1.6774 0.2395,-1.2778 1.9168,-11.5003 h 4.3925 l -0.4793,2.4756 h 2.2364 l -0.639,4.1532 h -2.2361 l -1.1981,6.9479 c 0,0.3197 -0.0798,0.5592 -0.0798,0.719 0,0.8785 0.4793,1.2778 1.5174,1.2778 0.559,0 0.8785,-0.0797 1.198,-0.1597 z" style="fill:#ffffff;fill-rule:evenodd" id="path32" inkscape:connector-curvature="0"/>
    <path d="m 83.756,61.1252 c 0,2.0763 1.0383,3.5937 3.3544,4.632 1.8369,0.8783 2.0764,1.118 2.0764,1.9168 0,1.0381 -0.7986,1.5173 -2.5556,1.5173 -1.2778,-2e-4 -2.4759,-0.2395 -3.9135,-0.7188 l -0.6388,3.9135 h 0.2396 l 0.7987,0.1595 c 0.2396,0.08 0.6388,0.1597 1.1181,0.1597 1.0381,0.08 1.9166,0.1598 2.4756,0.1598 4.6322,0 6.7886,-1.7568 6.7886,-5.5903 0,-2.3163 -0.8785,-3.6739 -3.1147,-4.712 -1.837,-0.7987 -2.0766,-1.0383 -2.0766,-1.757 0,-0.9583 0.7188,-1.4376 2.1564,-1.4376 0.8785,-2e-4 2.0764,0.1598 3.1947,0.3195 l 0.6387,-3.9137 c -1.118,-0.1597 -2.8751,-0.3192 -3.9132,-0.3192 -4.9517,0 -6.6288,2.5558 -6.6288,5.6705 z" style="fill:#ffffff;fill-rule:evenodd" id="path34" inkscape:connector-curvature="0"/>
    <path d="m 174.1619,72.6255 h -4.2325 l 0.2395,-1.6771 c -1.1983,1.2778 -2.4761,1.8368 -4.0734,1.8368 -3.1944,0 -5.3508,-2.7153 -5.3508,-6.948 3e-4,-5.5908 3.2744,-10.3025 7.1879,-10.3025 1.7571,0 3.0346,0.7187 4.2327,2.3161 l 0.9583,-5.9101 h 4.3924 z m -6.5486,-3.9932 c 2.0764,0 3.5137,-2.3161 3.5137,-5.6703 0,-2.0766 -0.7986,-3.2744 -2.3161,-3.2744 -1.9964,0 -3.4342,2.3159 -3.4342,5.6703 3e-4,2.1561 0.7188,3.2744 2.2366,3.2744 z" style="fill:#ffffff;fill-rule:evenodd" id="path36" inkscape:connector-curvature="0"/>
    <path d="m 114.264,72.2262 c -1.5171,0.4788 -2.9549,0.7188 -4.5522,0.7188 -4.9515,-2e-4 -7.5071,-2.6356 -7.5071,-7.5074 0,-5.8302 3.2744,-10.0627 7.7466,-10.0627 3.5942,-2e-4 5.91,2.3959 5.91,6.1495 3e-4,1.1976 -0.1597,2.3959 -0.4792,4.153 h -8.785 c -0.08,0.2395 -0.08,0.3193 -0.08,0.479 0,1.9169 1.2778,2.9552 3.9135,2.9552 1.5173,0 2.9549,-0.3195 4.5522,-1.0383 z m -2.4759,-9.9832 c 0,-0.3193 0,-0.6388 0,-0.8783 0,-1.3578 -0.7188,-2.1564 -2.0763,-2.1564 -1.3576,0 -2.3959,1.1181 -2.7952,3.0349 z" style="fill:#ffffff;fill-rule:evenodd" id="path38" inkscape:connector-curvature="0"/>
    <path d="m 66.9847,72.6255 h -4.3924 l 2.5558,-15.893 -5.6707,15.893 H 56.4427 L 56.1232,56.8122 53.4078,72.6255 H 49.3349 L 52.769,51.9407 h 6.3091 l 0.2397,12.7782 4.2328,-12.7782 h 6.8683 z" style="fill:#ffffff;fill-rule:evenodd" id="path40" inkscape:connector-curvature="0"/>
    <path d="m 77.926,65.1184 c -0.4793,-0.0803 -0.7188,-0.08 -1.0383,-0.08 -2.4756,-3e-4 -3.7534,0.8785 -3.7534,2.5556 0,1.0383 0.6387,1.7571 1.597,1.7571 1.8371,-3e-4 3.1149,-1.7571 3.1947,-4.2327 z m 3.1946,7.5071 h -3.6739 l 0.08,-1.7573 c -1.118,1.358 -2.5556,1.9968 -4.6322,1.9968 -2.3959,0 -3.9932,-1.8368 -3.9932,-4.5522 0,-4.073 2.7954,-6.4688 7.7469,-6.4688 0.4793,-3e-4 1.118,0 1.7571,0.0797 0.1597,-0.4795 0.1597,-0.7188 0.1597,-1.0383 0,-1.1183 -0.7188,-1.5173 -2.7954,-1.5173 -1.2778,-2e-4 -2.7153,0.1598 -3.6736,0.4793 l -0.6391,0.1595 -0.3992,0.08 0.639,-3.7537 c 2.2361,-0.6388 3.6737,-0.8785 5.271,-0.8785 3.8334,0 5.83,1.6773 5.83,4.8717 0,0.8783 -0.08,1.5176 -0.3992,3.3544 l -0.8786,5.9898 -0.1597,1.0381 -0.08,0.8785 -0.0798,0.5588 z" style="fill:#ffffff;fill-rule:evenodd" id="path42" inkscape:connector-curvature="0"/>
    <path d="m 147.5673,65.1184 c -0.4792,-0.0803 -0.719,-0.08 -1.0383,-0.08 -2.4756,-3e-4 -3.7536,0.8785 -3.7536,2.5556 2e-4,1.0383 0.639,1.7571 1.5973,1.7571 1.7571,-3e-4 3.1146,-1.7571 3.1946,-4.2327 z m 3.1947,7.5071 h -3.6739 l 0.08,-1.7573 c -1.1183,1.358 -2.6356,1.9968 -4.6322,1.9968 -2.3959,0 -4.0732,-1.8368 -4.0732,-4.5522 0,-4.073 2.8751,-6.4688 7.8266,-6.4688 0.4795,-3e-4 1.1183,0 1.7571,0.0797 0.16,-0.4795 0.1597,-0.7188 0.1597,-1.0383 3e-4,-1.1183 -0.7188,-1.5173 -2.7951,-1.5173 -1.2781,-2e-4 -2.7154,0.1598 -3.6739,0.4793 l -0.6386,0.1595 -0.3992,0.08 0.6387,-3.7537 c 2.2362,-0.6388 3.6735,-0.8785 5.2708,-0.8785 3.8334,0 5.83,1.6773 5.83,4.8717 0,0.8783 -0.0797,1.5176 -0.3992,3.3544 l -0.8783,5.9898 -0.16,1.0381 -0.1598,0.8785 -0.0795,0.5588 z" style="fill:#ffffff;fill-rule:evenodd" id="path44" inkscape:connector-curvature="0"/>
    <path d="m 162.5818,55.6944 c -0.08,-0.0802 -0.2397,-0.08 -0.3995,-0.08 -1.4373,-2e-4 -2.3161,0.7188 -3.6737,2.7154 l 0.3995,-2.5559 h -3.9932 l -2.7153,16.8516 h 4.4722 c 1.5173,-10.3027 1.9966,-12.0593 4.0729,-12.0593 0.1598,0 0.1598,0 0.3195,0 0.3993,-1.9969 0.9583,-3.5142 1.6771,-4.8718 z" style="fill:#ffffff;fill-rule:evenodd" id="path46" inkscape:connector-curvature="0"/>
    <g id="Layer1001">
      <path d="m 185.1529,94.8258 c 0,1.0458 -0.1057,2.122 -0.3103,3.2205 -0.2109,1.1057 -0.5357,2.1815 -0.974,3.2273 -0.4458,1.0536 -1.0196,2.0468 -1.7149,2.9873 -0.7017,0.9405 -1.5554,1.7602 -2.5446,2.4602 -0.9974,0.6995 -2.1526,1.2564 -3.4521,1.6627 -1.3065,0.4135 -2.7947,0.6169 -4.4634,0.6169 -1.677,0 -3.1418,-0.2406 -4.3881,-0.7222 -1.2463,-0.4894 -2.2811,-1.1589 -3.0898,-2.0091 -0.8081,-0.8501 -1.4123,-1.8655 -1.8125,-3.0321 -0.4003,-1.1661 -0.5966,-2.4298 -0.5966,-3.7766 0,-1.0912 0.1058,-2.1969 0.3319,-3.3181 0.2197,-1.1284 0.5592,-2.2119 1.0272,-3.25 0.461,-1.0459 1.0576,-2.024 1.7827,-2.9419 0.7175,-0.9255 1.5864,-1.723 2.5908,-2.4075 0.9968,-0.685 2.1449,-1.2193 3.4362,-1.6178 1.2919,-0.399 2.7422,-0.5942 4.3514,-0.5942 1.5781,0 2.9752,0.2256 4.1917,0.6696 1.2153,0.4511 2.2432,1.0907 3.074,1.9182 0.8385,0.828 1.4648,1.8284 1.9031,2.9945 0.4382,1.1738 0.6573,2.4757 0.6573,3.9123 z m -7.0624,0.0903 c 0,-0.6169 -0.0754,-1.1888 -0.2192,-1.7076 -0.1507,-0.5193 -0.3698,-0.9705 -0.6567,-1.3468 -0.2875,-0.3686 -0.6345,-0.6623 -1.05,-0.8806 -0.4154,-0.2106 -0.8917,-0.3159 -1.435,-0.3159 -0.9291,0 -1.7599,0.2633 -2.4927,0.7903 -0.7327,0.5342 -1.3444,1.211 -1.8504,2.0539 -0.4984,0.8352 -0.8835,1.7753 -1.1476,2.8211 -0.2647,1.0386 -0.4008,2.0844 -0.4008,3.1302 0,1.3313 0.3179,2.3699 0.9442,3.1071 0.627,0.7299 1.4426,1.0984 2.4477,1.0984 0.9588,0 1.7973,-0.2555 2.5293,-0.7671 0.7328,-0.5193 1.3452,-1.1888 1.836,-2.0167 0.4984,-0.8348 0.8682,-1.768 1.1177,-2.8139 0.2489,-1.0458 0.3775,-2.0916 0.3775,-3.1524 z" style="fill:#022351;fill-rule:evenodd" id="path48" inkscape:connector-curvature="0"/>
      <path d="m 145.2309,108.2064 c -1.8659,0.5671 -3.3584,0.794 -4.9754,0.794 -3.4826,-3e-4 -5.4727,-1.8148 -5.4727,-5.2177 0,-0.681 0.1242,-1.3614 0.2488,-2.1554 l 0.373,-2.3823 0.373,-1.8149 2.9854,-16.3339 h 6.841 l -0.7465,3.5162 h 3.483 l -0.9952,5.8987 h -3.4826 l -1.8659,9.8681 c 0,0.4541 -0.1243,0.7943 -0.1243,1.0212 0,1.2478 0.7465,1.8149 2.3632,1.8149 0.8706,0 1.3683,-0.1133 1.8659,-0.2269 z" style="fill:#022351;fill-rule:evenodd" id="path50" inkscape:connector-curvature="0"/>
      <path d="m 117.6992,93.1938 c 0,2.7767 1.617,4.8059 5.2242,6.1944 2.8608,1.1745 3.2338,1.4951 3.2338,2.5634 0,1.3881 -1.2437,2.0291 -3.9802,2.0291 -1.9901,-4e-4 -3.856,-0.3203 -6.0949,-0.9613 l -0.9949,5.2335 h 0.373 l 1.2441,0.2133 c 0.373,0.107 0.9949,0.2136 1.7413,0.2136 1.6167,0.107 2.985,0.2137 3.8556,0.2137 7.2144,0 10.5728,-2.3495 10.5728,-7.4759 0,-3.0976 -1.3683,-4.9131 -4.8509,-6.3013 -2.8611,-1.0682 -3.2341,-1.3885 -3.2341,-2.3497 0,-1.2816 1.1194,-1.9225 3.3583,-1.9225 1.3683,-3e-4 3.2338,0.2136 4.9755,0.4273 l 0.9949,-5.2338 c -1.7413,-0.2136 -4.4779,-0.4269 -6.0946,-0.4269 -7.712,0 -10.3239,3.4179 -10.3239,7.5831 z" style="fill:#022351;fill-rule:evenodd" id="path52" inkscape:connector-curvature="0"/>
      <path d="m 113.3533,108.0392 c -2.3627,0.6403 -4.602,0.9612 -7.0897,0.9612 -7.7117,-3e-4 -11.6919,-3.5246 -11.6919,-10.0395 0,-7.7968 5.0997,-13.4569 12.0649,-13.4569 5.5977,-3e-4 9.2045,3.204 9.2045,8.2238 4e-4,1.6015 -0.2488,3.204 -0.7465,5.5537 h -13.6819 c -0.1246,0.3203 -0.1246,0.427 -0.1246,0.6406 0,2.5634 1.9901,3.9519 6.0949,3.9519 2.3632,0 4.6021,-0.4273 7.0898,-1.3885 z m -3.856,-13.3505 c 0,-0.427 0,-0.8543 0,-1.1746 0,-1.8158 -1.1194,-2.8836 -3.2337,-2.8836 -2.1144,0 -3.7314,1.4951 -4.3533,4.0585 z" style="fill:#022351;fill-rule:evenodd" id="path54" inkscape:connector-curvature="0"/>
      <path d="M 68.5728,108.5732 H 61.2955 L 65.53,87.3195 56.1349,108.5732 h -5.0277 l -0.5294,-21.147 -4.4987,21.147 h -6.748 l 5.6896,-27.6617 h 10.4527 l 0.3972,17.0882 7.0126,-17.0882 h 11.3792 z" style="fill:#022351;fill-rule:evenodd" id="path56" inkscape:connector-curvature="0"/>
      <path d="m 85.8742,98.5339 c -0.7465,-0.1073 -1.1195,-0.107 -1.6171,-0.107 -3.8556,-3e-4 -5.8458,1.1749 -5.8458,3.4177 0,1.3885 0.9949,2.3497 2.4874,2.3497 2.8611,-3e-4 4.8512,-2.3497 4.9755,-5.6604 z m 4.9754,10.0393 h -5.7219 l 0.1246,-2.3501 c -1.7413,1.8161 -3.9802,2.6704 -7.2144,2.6704 -3.7314,0 -6.2191,-2.4564 -6.2191,-6.0877 0,-5.4467 4.3536,-8.6507 12.0652,-8.6507 0.7465,-4e-4 1.7413,0 2.7366,0.1066 0.2488,-0.6412 0.2488,-0.9612 0.2488,-1.3885 0,-1.4955 -1.1195,-2.0291 -4.3536,-2.0291 -1.9901,-3e-4 -4.2291,0.2136 -5.7215,0.6409 l -0.9953,0.2133 -0.6218,0.107 0.9952,-5.0198 c 3.4826,-0.8542 5.7215,-1.1748 8.2093,-1.1748 5.9703,0 9.0799,2.2431 9.0799,6.5149 0,1.1746 -0.1246,2.0295 -0.6219,4.4859 l -1.3682,8.0101 -0.2489,1.3882 -0.1245,1.1749 -0.1243,0.7472 z" style="fill:#022351;fill-rule:evenodd" id="path58" inkscape:connector-curvature="0"/>
      <path d="m 163.5678,85.9313 c -0.2488,-0.1073 -0.498,-0.107 -0.7468,-0.107 -2.2389,-3e-4 -3.4826,0.9612 -5.5969,3.6313 l 0.6218,-3.418 h -6.3437 l -4.1041,22.5356 h 6.841 c 2.4877,-13.7778 3.1092,-16.1269 6.4676,-16.1269 0.1242,0 0.1242,0 0.4976,0 0.6218,-2.6704 1.3679,-4.6995 2.6119,-6.515 z" style="fill:#022351;fill-rule:evenodd" id="path60" inkscape:connector-curvature="0"/>
      <path d="m 183.9289,106.7636 c 0,-0.9572 0.7447,-1.7019 1.8089,-1.7019 0.9575,0 1.7023,0.7447 1.7023,1.7023 3e-4,0.9575 -0.7448,1.8085 -1.7023,1.8085 -1.0638,0 -1.8089,-0.851 -1.8089,-1.8089 z m 1.8092,1.3833 c 0.6382,0 1.2763,-0.6382 1.2763,-1.3829 0,-0.7451 -0.6385,-1.2767 -1.2766,-1.2767 -0.7448,0 -1.3832,0.5319 -1.3832,1.2767 3e-4,0.7447 0.6384,1.3832 1.3835,1.3829 z m -0.3194,-0.5323 h -0.3194 v -1.5957 h 0.6388 c 0.1059,0 0.3188,3e-4 0.4253,0.1066 0.1066,0.1062 0.2125,0.2128 0.2125,0.3194 4e-4,0.2128 -0.1062,0.4253 -0.319,0.4253 l 0.3194,0.7444 h -0.4257 l -0.2125,-0.6378 h -0.3194 z m 0,-0.9569 h 0.2125 c 0.1069,0 0.2128,0 0.2128,0 0.1066,0 0.1066,-0.1066 0.1066,-0.2128 0,0 0,-0.1066 -0.1066,-0.1066 0,0 -0.1062,0 -0.2128,0 h -0.2125 z" style="fill:#022351;fill-rule:evenodd" id="path62" inkscape:connector-curvature="0"/>
    </g>
  </g>
</svg>